<?xml version="1.0" encoding="iso-8859-1"?>
<!-- Uploaded to: SVG Repo, www.svgrepo.com, Generator: SVG Repo Mixer Tools -->
<!DOCTYPE svg PUBLIC "-//W3C//DTD SVG 1.1//EN" "http://www.w3.org/Graphics/SVG/1.1/DTD/svg11.dtd">
<svg fill="#000000" version="1.1" id="Capa_1" xmlns="http://www.w3.org/2000/svg" xmlns:xlink="http://www.w3.org/1999/xlink" 
	 width="800px" height="800px" viewBox="0 0 587.59 587.59"
	 xml:space="preserve">
<g>
	<g>
		<path d="M225.625,180.618c-10.7-15.9-32.1-16.2-47.7-7.7c-13.5-11-26.9-21.7-40.7-32.399c1.5-4,1.8-8.601,1.5-12.9
			c13.8-11.9,27.2-24.5,39.8-37c18.1,6.1,40.1-0.6,44.7-22c1.5-6.7-6.7-9.5-10.7-4.6c-6.7,8.6-13.8,14.699-22.3,14.699
			c6.4-6.699,12.9-13.5,19-20.199c4.9-5.2-1.5-14.4-8-10.101c-10.4,7-20.5,14.4-30,22.3c-8.6-8.3-8.9-20.5,0.3-30.6
			c2.4-2.8-0.9-7.6-4.3-5.5c-16.5,11-17.7,30.3-6.1,44.1c-10.1,8.601-19.9,17.101-29.7,26c-5.8-7.6-13.5-11-21.7-11
			c-1.2-11.3-2.1-22.3-3.4-33.399c15.6-2.8,29.1-13.8,28.8-32.4c0-5.8-7.6-6.1-9.5-1.2c-4.6,12.2-9.5,20.5-20.2,22.601
			c-1.2-11.601-2.1-22.9-3.1-34.3c-0.3-5.5-8.3-5.5-8.6,0c-0.6,11.3-1.2,22.6-1.5,34c-7.3-1.2-16.2-3.7-22-7
			c-2.1-1.2-4.9,1.199-3.4,3.399c6.1,8.601,15.3,13.5,25.1,15c-0.3,12.9-0.6,25.7-0.6,38.601c-0.9,0.6-2.1,1.199-3.1,2.1
			c-6.7-6.1-15.6-13.8-24.8-21.1c5.8-8.301,8.6-17.4,6.1-27.2c-2.4-9.8-13.8-21.4-24.5-19c-2.8,0.6-3.7,3.7-2.4,6.1
			c3.4,6.7,12.2,8.601,15,16.2c2.1,5.8-0.3,12.2-3.1,17.1c-15-11-30-19-38.2-14.699c-1.8,0.899-0.9,4,0.9,3.699
			c4.9-0.6,18.7,12.5,28.2,21.7c-6.1,4.9-13.5,7.3-20.2,3.101c-2.4-1.5-4.9,1.5-3.7,3.699c6.7,12.5,20.8,7.7,31.2,0
			c0.6,0.601,0.9,0.9,1.5,1.2c7.6,6.4,15.6,12.5,23.3,19c-2.4,3.101-4.6,6.7-6.1,10.4c-4.3,11.899,0.3,22.3,8.6,29.7
			c-15,12.899-30.9,24.8-48,35.5c-0.6-0.601-1.5-1.2-2.1-1.5c-6.4-4.301-14.7-7.7-22.3-7c-5.8,0.3-7,4.899-7.6,8.6
			c-0.3,1.5,2.1,2.1,2.8,0.9c1.2-2.801-1.2-0.9,1.8-1.2c2.4-0.3,4.3,0,6.4,0.6c4,1.2,7.6,3.4,11,6.101
			c-6.1,3.699-12.5,7-19.3,10.399c-3.4,1.5-0.9,7.3,2.8,6.101c8.3-2.801,16.5-5.801,24.5-9.5c4.6,4.6,8.6,10.399,11,16.5
			c3.1,7,0.9,15,4,21.699c1.5,3.101,6.4,3.7,8.6,1.2c7-8,2.4-21.1-1.5-29.7c-2.8-5.5-6.4-10.399-11-14.699
			c17.7-8.601,35.2-19,51.7-30.9c0.9,19.3,2.4,38.2,4.3,56.9c-15,7-26.3,23.6-28.5,39.5c-0.6,4.899,6.1,7,7.6,2.1
			c3.7-11.6,11.6-22.3,22.3-28.8c1.2,11,2.4,21.7,4,32.399c0.9,7,10.4,4.301,11-1.5c1.5-11.3,2.1-22.6,2.8-34.3
			c7.3,2.8,11,11.3,17.4,18.4c3.1,3.399,8,0.6,8.3-3.4c0.9-15-11.6-24.8-25.1-26.899c0.3-18.7,0-37.301-1.2-56.301
			c4.6-1.5,8.9-4.3,12.2-7.3c11.6,10.4,23.6,21.4,35.8,31.5c-13.8,20.5-6.1,45,17.7,52.601c4,1.199,6.1-4.301,2.8-6.4
			c-14.4-8.9-19-23.6-10.1-37.6c9.8,8,19.9,15.3,30.3,21.399c7.3,4.3,15.3-5.8,9.2-11.899c-7.3-7.301-15.3-14.4-23.3-21.101
			c1.2-0.3,2.4-0.6,3.7-0.899c9.8-1.2,16.8,4.6,25.7,7.3C223.726,190.717,228.625,185.118,225.625,180.618z"/>
		<path d="M585.426,289.518c-13.199-9.2-32.1-6.101-44.699,2.8c-10.701-10.7-21.701-20.8-33-30.9c2.1-2.399,4-4.899,5.799-7.3
			c5.801-8,7-17.7,4.301-26.9c4.9-4.899,9.5-9.8,14.4-14.699c11.898,6.1,28.799,6.1,38.6-2.4c4.6-4-0.301-9.8-5.201-9.2
			c-8.6,1.2-15.898,4-24.199,2.101c4.6-4.9,9.5-10.101,13.801-15c5.5-6.101-2.801-14.101-8.9-8.9c-5.5,4.6-11,9.5-16.5,14.1
			c-0.9-4.3,0.9-9.199,4.299-13.5c3.1-4-1.799-9.199-5.5-5.5c-8.6,7.301-12.5,18.101-8,27.2c-4,3.7-8,7-11.9,10.7
			c-6.1-5.8-14.1-9.8-22.6-11.9c0-8.3,0.301-16.5,0.6-25.1c9.201-1.8,18.102-7,23.301-15.3c2.801-4.3-2.4-9.2-6.699-6.7
			c-5.5,3.1-10.701,6.4-16.201,8.9c0.301-11.301,1.201-22.601,2.1-33.7c0.301-3.4-4.6-3.7-5.5-0.601
			c-4,12.2-6.699,24.801-9.199,37.601h-0.301c-13.199,0.3-18.1-10.4-19.898-21.7c-0.602-4.3-6.701-2.8-7,0.9
			c-1.5,18.399,11,28.8,25.398,31.199c-1.199,7.601-2.398,15.601-3.1,23.301c-8.6,0.6-16.5,3.699-22.299,9.8
			c-0.602,0.6-0.9,1.2-0.9,1.8c-7-5.5-13.801-10.7-20.801-16.2c10.1-10.7,14.701-30.899,1.801-40.399c-1.801-1.5-5.5,0-5.801,2.399
			c-1.799,11.9,4,22-4.6,31.2c-10.1-8-20.5-15.9-30.301-23.9c-4.6-3.699-11,2.4-6.699,6.7c8.301,8,16.801,16.2,25.4,24.5
			c-9.801,3.101-21.1,0.9-30-4.899c-4-2.4-7,3.399-3.4,6.1c11.9,9.2,27.801,11.6,41.301,6.4c8.299,8,16.5,15.6,24.799,23.6
			c-2.4,6.1-2.799,13.2,0,21.1c2.801,8.301,7.6,15,14.1,20.2c-8.898,8.3-17.699,16.5-26.898,24.5
			c-12.5-6.399-27.5-8.899-40.701-11.6c-4.6-0.9-6.4,5.5-1.799,7.3c11.299,4,22.6,7,33.398,12.2c-8,6.7-16.199,13.5-24.799,19.9
			c-3.701,2.8-0.6,8.899,3.699,6.399c10.701-6.1,21.1-12.5,31.5-19.899c3.1,2.399,5.5,5.8,6.1,9.5
			c1.201,8.3-6.398,14.699-8.898,21.699c-1.5,4.301,4,8.301,7.699,5.801c15.301-9.801,17.4-31.801,4.6-44.101
			c10.1-7.3,20.201-15,30-23.3c-0.299,15.899,0,31.5,0,47.1c-10.4,3.4-20.199,9.801-27.199,15.9c-3.701,3.1,1.199,9.5,5.199,6.7
			c7-5.2,14.4-9.5,22.301-12.2c0,7.3,0,14.7,0,21.7c0,5.2,7.699,6.399,8.9,1.2c1.799-8.301,3.398-16.5,4.6-25.101
			c7.299,0.9,13.5,5.5,19.9,11c4,3.4,9.799-0.899,7.299-5.5c-5.799-11.899-15.299-16.2-25.699-16.2
			c1.799-14.399,3.1-29.1,3.699-43.8c2.4-0.3,4.6-1.2,6.701-2.1c12.5,11,25.4,21.399,38.199,31.8c-4.6,9.2-4.9,20.2-0.9,30.6
			c1.5,4,6.701,2.4,6.1-1.8c-1.199-8-0.299-15.6,3.102-22.3c6.699,5.2,13.199,10.4,19.898,15.6c6.102,4.601,11.602-4.6,7.602-9.8
			c-5.201-6.1-10.701-11.899-16.201-18.1c10.4-6.4,22-4.3,33.4-2.101C586.926,299.018,589.727,292.917,585.426,289.518z"/>
		<path d="M340.025,474.917c0.9,2.801,1.801,5.2,3.701,7.7c11.299,17.4,37.6,20.5,52.6,6.101c4-4,0-11.601-5.801-9.801
			c-12.199,4-24.199,8.301-34.6-1.8c-1.199-1.2-2.1-2.1-2.801-3.399c5.5-0.301,11-0.9,16.5-1.2c9.201-0.601,9.5-14.4,0-14.7
			c-5.799,0-11.898,0-17.699,0c1.801-4.6,5.5-9.2,10.1-12.2c3.701-2.8,0.6-8.3-3.699-6.399c-8.9,4-15,11-17.701,19
			c-12.5,0.6-25.1,1.5-37.299,2.399c-0.6-5.5-2.4-11-5.5-15.899c-0.9-1.5-2.1-2.801-3.4-4.301c2.4-6.699,4.6-13.8,7-20.5
			c16.801,0.301,34.6-11,37.9-27.8c1.5-6.7-6.701-9.8-10.701-4.6c-6.699,8.899-12.5,16.8-23,19.3c2.801-8,5.5-16.2,8.602-24.2
			c3.1-8.3-10.102-11.899-13.201-3.7c-3.4,8.9-6.4,17.7-9.5,26.601c-6.1-2.8-10.1-8.9-6.4-16.5c2.1-4.601-3.7-8-6.7-4
			c-8.9,12.5-3.1,25.7,9.5,31.5c-1.5,4.899-3.4,9.8-4.9,14.7c-10.7-5.801-23.9-6.7-33,1.199c-6.1-5.8-13.5-13.199-21.7-19.6
			c7.3-11.6,12.2-31.5,2.4-42.5c-3.4-3.7-8.9-0.6-8.9,3.7c-0.3,4.6,1.5,9.2,1.5,14.1c0.3,5.8-1.5,11.601-4,16.8
			c-0.3,0.301-0.3,0.601-0.6,1.2c-11.9-7.6-24.2-12.2-34.3-6.7c-0.9,0.601-0.3,1.801,0.6,1.5c5.5-1.8,15.6,4.301,26.6,13.5
			c-6.1,4.601-14.1,6.101-22.3,4c-5.5-1.199-7.7,6.7-2.4,8.601c11.9,4.3,23.9,2.1,33.4-5.2c6.7,6.4,13.8,13.2,19.9,19.9
			c-6.4,6.1-9.8,15-9.2,24.8c-8.3,0.6-16.8,0.899-25.1,0.899c-3.4-8.3-11.3-14.399-21.1-13.5c-3.4,0.301-6.1,4.601-3.1,7.301
			c2.4,2.1,5.5,4,8.3,5.8c-9.2-0.3-18.7-0.601-27.8-1.5c-6.1-0.601-7.3,9.5-1.5,10.7c11,2.399,22,4,33,5.199
			c-4.3,8-15,12.5-23.3,14.101c-5.2,0.899-4,9.8,1.2,9.2c13.8-1.5,28.8-8.9,34.3-22.301l0,0c10.1,0.601,20.2,0.601,30.6,0.601
			c4.9,7.3,12.9,11.6,21.4,13.5c-5.8,12.2-12.2,24.2-19.9,35.5c-15-1.5-31.2,0.3-44.4,4.6c-3.4,1.2-1.8,5.8,1.5,5.2
			c11.3-2.1,24.2-1.8,36.1-0.3c-6.7,8.899-14.1,17.1-22.3,25.1c-1.5,1.2-0.6,4,1.2,4.3c14.7,3.7,27.8-10.1,38.2-26.3
			c5.5,1.2,11,3.4,15,7c5.5,4.9-2.8,13.2-5.2,17.7c-2.1,4.3,2.4,9.2,6.7,6.7c19.9-11.601,13.2-32.4-5.8-39.2
			c-1.8-0.6-3.4-1.2-5.2-1.5c6.1-11,10.7-21.4,13.8-27.5c1.5-3.4,3.1-6.7,4.6-10.4c5.8-0.6,11.3-2.1,16.2-4.899l0,0
			c11.9,12.5,23.9,25.399,35.801,37.899c-6.102,6.101-10.102,13.801-10.701,22.301c-0.299,4.6,6.4,5.199,7.701,0.899
			c1.799-6.7,5.199-11.899,10.1-15.899c3.4,3.399,6.699,7,10.1,10.399c7,7,16.5-3.399,10.699-10.7c-1.799-2.399-4-4.899-5.799-7.3
			c12.9-3.399,22.6,1.8,33.4,7.7c4.6,2.4,10.699-2.8,7.299-7.3c-10.699-16.5-31.799-17.7-49-9.8
			c-11.9-14.101-24.799-27.5-38.199-40.4c0.299-0.6,0.6-0.9,0.6-1.5C314.025,477.417,327.227,476.218,340.025,474.917z"/>
	</g>
</g>
</svg>